<svg xmlns="http://www.w3.org/2000/svg" viewBox="0 0 100 120"><path d="M8 8h84v50c0 30-42 55-42 55S8 88 8 58Z" fill="#752d31" stroke="#debb73" stroke-width="5"/><path d="M19 23h62v30c0 20-31 45-31 45S19 73 19 53Z" fill="#f1e8d3"/><path d="m19 27 62 40v15L19 42Z" fill="#752d31"/><path d="m50 36 14 30H36Z" fill="#debb73" stroke="#752d31" stroke-width="2"/><path d="m50 78 3 7 8 1-6 5 2 7-7-4-7 4 2-7-6-5 8-1Z" fill="#752d31"/><text x="50" y="17" text-anchor="middle" fill="#f1e8d3" font-family="Arial" font-size="8" font-weight="bold">ATLÉTICO DELTA</text></svg>
